<?xml version="1.0" standalone="no"?>
<!DOCTYPE svg PUBLIC "-//W3C//DTD SVG 20010904//EN"
 "http://www.w3.org/TR/2001/REC-SVG-20010904/DTD/svg10.dtd">
<svg version="1.0" xmlns="http://www.w3.org/2000/svg"
 width="512.000000pt" height="512.000000pt" viewBox="0 0 512.000000 512.000000"
 preserveAspectRatio="xMidYMid meet">
<metadata>
Created by potrace 1.11, written by Peter Selinger 2001-2013
</metadata>
<g transform="translate(0.000000,512.000000) scale(0.100000,-0.100000)"
fill="#000000" stroke="none">
<path d="M2384 5060 c-222 -15 -489 -71 -689 -145 -146 -53 -403 -183 -532
-269 -630 -418 -1041 -1090 -1123 -1836 -15 -135 -15 -425 0 -560 122 -1096
941 -1988 2025 -2205 172 -34 289 -45 495 -45 207 0 323 11 500 46 382 76 718
229 1050 478 110 82 340 307 426 416 247 314 427 692 504 1061 50 243 67 570
40 809 -103 936 -723 1741 -1605 2085 -231 91 -487 147 -755 165 -158 11 -173
11 -336 0z m1053 -2157 c-3 -1088 -3 -1099 -24 -1178 -79 -292 -234 -478 -493
-589 -118 -50 -210 -67 -395 -73 -263 -8 -425 20 -595 104 -80 39 -109 61
-186 137 -80 81 -97 104 -147 206 -54 111 -99 243 -112 333 l-7 43 292 43
c160 24 294 40 297 37 4 -4 15 -39 25 -78 53 -209 155 -320 322 -348 166 -29
323 47 382 186 48 112 48 99 51 977 l4 827 -286 0 -285 0 0 235 0 235 580 0
581 0 -4 -1097z"/>
</g>
</svg>
