<?xml version="1.0" encoding="UTF-8"?>
<svg width="708.66" height="708.66" fill-rule="evenodd" viewBox="0 0 566.92912 566.92908" xmlns="http://www.w3.org/2000/svg">
 <g transform="matrix(1.3334 0 0 1.8345 -135 -862.96)">
  <path d="m236.91 709.86c-26.067-7.622-30.608-25.24-50.265-38.996-13.469-9.426-29.723-18.594-35.772-33.947-5.586-14.174 7.971-56.974 19.428-67.893 8.537-8.176 39.863-31.818 50.574-31.983 28.208-0.435 56.296-12.067 82.953-4.489l42.865 11.503c10.485 2.806 20.661 14.589 28.679 20.761 22.522 17.416 44.137 31.249 43.482 62.282-1.061 50.209-54.763 86.97-107.93 86.97-9.962 0-72.256-6.603-74.011-4.208z" fill="#c5c7c9"/>
  <path d="m117.148,671.802c15.726.082 40.485-.241 54.213-2.431 12.114-1.734 25.764,1.299 39.361-.753 19.368-2.453 19.731,3.145 34.16,4.808 23.266,2.216 64.99,9.863 88.036,4.291 42.509-10.279 91.971.582 137.132-4.394 12.725.067 27.205.364 40.707,1.612-12.947-.068-24.525,1.506-30.885,7.74-1.539.055-3.043.171-4.505.341-15.849-.083-31.171,5.483-31.991,13.864-.952.161-1.881.346-2.785.554l.994-.24-2.474.098-20.406-.107c-16.226-.084-29.383,6.579-28.886,14.596l-2.044.233c-16.727.525-32.249.521-46.865,4.249-4.259.758-8.047,2.003-11.092,3.599-8.757-.352-18.197-.505-29.2-.562l-2.977-.343c-2.969-.506-4.885-1.48-7.649-2.213-2.988-1.245-6.436-2.171-10.11-2.737-16.41-2.524-34.497-5.445-50.196-.74-1.854-.24-3.714-.592-5.577-.972-2.835-1.193-6.4-2.174-9.892-2.851-5.574-1.651-10.98-3.256-17.35-3.99-4.493-1.007-9.258-1.816-13.929-2.595-3.499-1.429-7.687-2.461-12.276-2.954-1.458-4.359-7.112-8.607-14.736-10.897-1.88-8.417-16.115-12.612-31.199-13.397-2.564-1.229-5.275-2.237-7.8-3.507 .099-.098.174-.198.221-.302z" fill="#008ed1"/>
  <path d="m315.965,573.453c-8.256,26.833-18.171,10.899-4.796,24.274 1.407,1.407 2.699-5.593 5.285-2.399 9.261,11.437-11.972,30.274-15.085,46.231-2.634,13.499 5.031,5.081 15.839-3.509 11.153-8.863 25.574-18.077 30.244-14.72 10,7.187-23.671,30.625-16.091,28.558 10.409-2.839 3.122-11.621 12.509-2.235 .039.039-7.333,20.61 9.793,10.112 2.417-1.482 6.416,3.207 6.014,6.013-.037.259 37.029,15.36 33.548,13.871-23.017-9.851-61.466,17.38-85.437,7.816-9.289-3.706-14.158,11.728-24.24,13.152-1.382.195-41.124-24.035-42.255-23.707-34.182,9.915 11.013-25.123 19.605-36.743 11.213-15.165 41.063-80.719 55.067-66.714zm16.228,103.13c-.631.477-1.594.699-1.892,1.432-.165.406 1.573-1.148 1.892-1.432zm-10.267-4.039c4.533-9.354-5.424,1.144-8.235,4.052-1.086,1.124 7.371-4.916 8.235-4.052zm-38.315,3.961c2.049-2.494 12.979-11.661 13.837-14.886 .558-2.098-23.514,19.196-13.837,14.886zm-14.203-18.451c.965-1.119 3.619-3.393 2.127-3.394-2.694-.003-4.291,1.229-2.127,3.394zm-6.63,1.948c-.473.316-8.076,6.242-6.166,6.04 3.078-.325 4.428-3.467 6.166-6.04zm56.058,1.765c-.541.346-1.671.509-1.355,1.07 .282.501.903-.714 1.355-1.07zm-40.655-20.164c3.511-6.873-12.746,3.726-9.938,5.52 3.188,2.036 6.65-3.636 9.938-5.52z" fill="#845b2f"/>
  <path d="m254.893,631.254c-6.748,2.13-13.222,2.257-20.264,1.081-2.401-2.273-5.182-4.041-7.706-6.212l-2.854-1.621c-1.452-2.06-3.142-3.824-4.851-5.672l-1.143-2.701c-3.198-4.373-5.281-7.827-5.708-13.505-.92-6.983 2.195-13.42 4.852-19.718l1.141-1.621c1.944-2.759 3.85-5.556 5.709-8.373 7.943-3.762 14.798-3.442 23.118-1.081 1.811.572 3.559,1.269 5.423,1.621 2.853.27 7.421,2.432 10.275,3.242 1.487,1.406 2.585,2.578 4.281,3.781l1.712,2.431c2.015,1.907 3.707,4.048 5.709,5.943 1.114,1.054 1.861,2.712 2.568,4.051l1.713,2.431c.781,2.218 1.657,4.321 2.568,6.482 .966,2.293-.776,5.116-1.718,7-1.828,3.658-4.152,6.512-6.579,9.734-1.412,1.817-2.827,4.136-3.714,6.236-1.917.905-3.935.999-5.114,3.23-1.804.853-3.699,1.35-5.708,1.35-.773,0-4.825.837-3.71,1.891z" fill="#fc0"/>
  <path d="m229.139,674.986 .956-2.679c.383-.957 1.722-2.296 2.488-3.253 .574-.574 1.339-1.53 1.722-1.913l3.635-4.592c.957-1.148 2.488-3.062 3.636-3.827 .191,0 .574-.383.765-.574 2.87-2.296 6.314-5.549 8.993-8.036l.765-.766 .383-.765 2.679-3.061c1.339-1.148 3.061-3.444 4.4-4.784 .766-.956 1.722-2.105 2.488-3.061l2.87-4.592c1.148-1.722 2.679-4.401 4.209-6.315 .766-.956 1.531-2.104 2.105-3.061l2.296-3.827c.765-.956 2.105-3.061 2.87-4.018l.957-1.722c.765-1.148 1.531-3.827 2.679-4.783l2.678-3.062c1.34-1.339 2.87-3.444 4.019-4.975 2.104-2.487 4.209-5.548 5.548-8.418l.574-1.34c.574-.956 1.531-1.913 2.105-2.87 .957-1.722 2.87-3.635 4.018-5.166 1.722-2.105 3.827-5.357 5.74-7.08 .574-.574 1.531-1.148 2.105-1.53s.765-.957 1.339-1.148c.383-.192.957-.192 1.531-.192 .383.766.191,2.105.191,3.062v.765c0,1.531-1.148,3.253-1.722,4.784-.574,1.722-1.339,3.635-2.296,5.357-.382.765-1.339,1.722-1.913,2.487-.383.575-.765,1.531-.957,2.105-.191.383-.765.766-.956.957-.574.765-1.34,2.105-1.722,2.87l-4.019,5.357c-1.148,1.723-3.635,3.445-4.974,5.167-.766.956-2.105,2.487-2.488,3.444-.765,2.104-2.296,4.592-3.061,6.697-1.34,3.826-2.105,8.036-3.444,11.863-.574,1.722-1.531,3.635-1.722,5.357 0,.765-.383,1.913-.574,2.679-.574,2.104-1.722,4.401-1.914,6.697l-1.339,7.079c0,.765-1.914,1.531-2.296,1.722-.957.383-2.296,1.148-2.87,1.914-.383.574-1.148,1.53-1.722,2.104-.957.957-2.296,3.253-2.87,4.401 0,.191-.574,1.531-.766,1.531l1.34-1.531c.765-.765 3.635-2.296 4.783-2.679 1.531-.382 4.401-.956 5.932-.765 .574,0 1.913.574 2.487.957 .191,0 1.531.956 1.722.956 0,.192.191.766.191,1.148 .192,0 .192.766.192.957 .382,0 0,.191.382.191v.383c.383,0 0,.191.383.191 0,.383.191,1.34.191,1.914-.765,0-4.4,2.87-4.974,3.061l-1.722.574c-.574.192-1.722.766-2.488.957-.957.383-2.487,1.339-3.444,1.531-.574,0-2.105.574-2.296.574 0,.382-.191.574-.191.956 .191,0 .956,1.148 1.148,1.531 .191.574.191,1.339.191,1.913v2.105c0,3.636-3.827,6.123-7.079,7.08-1.723.574-4.975.191-6.697.191h-2.488c-1.722,0-4.592-1.339-6.314-1.913 0,0-1.148-1.148-1.339-1.148-.383-.192-1.148-1.148-1.34-1.148-.574-.383-1.53-.766-2.104-1.148-.192-.192-.957-.766-1.34-.766-.574,0-1.339-.191-1.53-.382h-8.228c0-.192-.574-.383-.765-.383 0-.191-1.34-.765-1.531-.765l-.191-.192c0-.191-.192-.765-.574-.765l.574-.574z"/>
  <path d="m285.765,664.999c4.445-5.906 10.634-10.218 15.403-15.895 2.016-1.001 3.867-2.225 5.455-3.896 2.33-2.451 5.901-4.682 8.865-6.286 3.63-1.862 6.444-5.041 10.181-6.718 1.821-.405 4.767-3.453 6.477-4.212-2.276,2.827 6.918-4.383 10.2-2.436 4.093,2.429-18.629,22.234-19.385,26.833-.123.753-1.818,1.53-2.182,1.722-3.031,1.275-5.706,5.499-7.093,8.419 0,.191-.546,1.53-.728,1.53 2.92-3.51 9.614-6.97 13.823-4.018 .182,0 1.455.957 1.637.957 0,.73.364,1.367.364,2.105 .363,0 0,.191.363.191v.383c.364,0 0,.191.364.191 0,.383.182,1.339.182,1.913-.728,0-4.183,2.87-4.729,3.062-2.037.714-3.978,1.521-5.909,2.506-5.299,0-11.209-.701-16.435.28l.485-.102c-1.851,0-6.555.654-8.122-.11-2.157-1.649-4.576-2.866-6.841-4.329-.734-.777-1.531-1.475-2.375-2.09z"/>
  <path d="m298.358,696.458c-.288-.504-.504-1.008-.72-1.512" fill="none" stroke="#000" stroke-width="2.0001"/>
  <path d="m278.92 695.67h-1.584v-1.512" fill="none" stroke="#000" stroke-width="2.0001"/>
  <path d="m278.92 695.67c-0.576-0.504-1.08-1.008-1.584-1.512" fill="none" stroke="#000" stroke-width="2.0001"/>
  <path d="m284.39,694.946c-1.584.72-1.584.72-5.472.72" fill="none" stroke="#000" stroke-width="2.0001"/>
  <path d="m288.28 695.67c-1.584 0-2.376-0.72-3.888-0.72" fill="none" stroke="#000" stroke-width="2.0001"/>
  <path d="m288.278,695.666c.216-.504.432-1.008.72-1.512h1.584" fill="none" stroke="#000" stroke-width="2.0001"/>
  <path d="m290.582,694.946c-.792.216-1.584.432-2.304.72" fill="none" stroke="#000" stroke-width="2.0001"/>
  <path d="m284.39 694.95v-4.68" fill="none" stroke="#000" stroke-width="2.0001"/>
  <path d="m290.58 694.95v-0.792" fill="none" stroke="#000" stroke-width="2.0001"/>
  <path d="m292.17 694.95h-1.584" fill="none" stroke="#000" stroke-width="2.0001"/>
  <path d="m292.166,694.946c-.288-.576-.576-1.08-.792-1.584-.288.216-.576.504-.792.792" fill="none" stroke="#000" stroke-width="2.0001"/>
  <path d="m296.05 694.15c-2.376 0-2.376 0-3.888 0.792" fill="none" stroke="#000" stroke-width="2.0001"/>
  <path d="m297.638,694.946c-.576-.288-1.08-.576-1.584-.792" fill="none" stroke="#000" stroke-width="2.0001"/>
  <path d="m297.64 694.95v-1.584" fill="none" stroke="#000" stroke-width="2.0001"/>
  <path d="m298.36 694.95h-0.72" fill="none" stroke="#000" stroke-width="2.0001"/>
  <path d="m299.942,694.154c-.576.216-1.08.504-1.584.792" fill="none" stroke="#000" stroke-width="2.0001"/>
  <path d="m277.33 694.15c-1.728-1.728 0-2.808 0-4.68" fill="none" stroke="#000" stroke-width="2.0001"/>
  <path d="m290.58 694.15v0.792" fill="none" stroke="#000" stroke-width="2.0001"/>
  <path d="m296.054,694.154c.504-.288 1.008-.576 1.584-.792" fill="none" stroke="#000" stroke-width="2.0001"/>
  <path d="m299.94 694.15v-1.584" fill="none" stroke="#000" stroke-width="2.0001"/>
  <path d="m306.21 690.27v1.512c-2.448 2.448-2.808 2.376-6.264 2.376" fill="none" stroke="#000" stroke-width="2.0001"/>
  <path d="m260.2 693.36v-2.376" fill="none" stroke="#000" stroke-width="2.0001"/>
  <path d="m297.638,693.362c.72-.792.72-.792 2.304-.792" fill="none" stroke="#000" stroke-width="2.0001"/>
  <path d="m276.54 688.68c-6.552 0-7.992 2.304-16.344 2.304" fill="none" stroke="#000" stroke-width="2.0001"/>
  <path d="m299.942,692.57c.504-.792 1.008-1.584 1.584-2.304" fill="none" stroke="#000" stroke-width="2.0001"/>
  <path d="m301.526,690.986c-.144.504-.288,1.008-.432,1.584h-1.152" fill="none" stroke="#000" stroke-width="2.0001"/>
  <path d="m260.2 690.99c-2.376-0.792-2.592-1.728-3.888-3.888" fill="none" stroke="#000" stroke-width="2.0001"/>
  <path d="m301.53 690.99v-0.72" fill="none" stroke="#000" stroke-width="2.0001"/>
  <path d="m284.39 690.27c-1.584 0-1.584 0-3.168-1.584" fill="none" stroke="#000" stroke-width="2.0001"/>
  <path d="m284.39,690.266c1.512,0 1.512,0 1.512-.792-.936-.792-1.872-1.584-2.736-2.376-.648.504-1.296,1.008-1.944,1.584" fill="none" stroke="#000" stroke-width="2.0001"/>
  <path d="m301.53 690.27v0.72" fill="none" stroke="#000" stroke-width="2.0001"/>
  <path d="m304.62 690.27c-2.304 0-2.304 0-3.096 0.72" fill="none" stroke="#000" stroke-width="2.0001"/>
  <path d="m304.622,690.266c.216-.576.504-1.08.792-1.584" fill="none" stroke="#000" stroke-width="2.0001"/>
  <path d="m306.21 690.27h-1.584" fill="none" stroke="#000" stroke-width="2.0001"/>
  <path d="m306.206,690.266c-.288-.576-.576-1.08-.792-1.584" fill="none" stroke="#000" stroke-width="2.0001"/>
  <path d="m335.8 690.27c-3.096 0-3.096-0.504-3.096-3.168" fill="none" stroke="#000" stroke-width="2.0001"/>
  <path d="m277.33 689.47-0.792-0.792" fill="none" stroke="#000" stroke-width="2.0001"/>
  <path d="m301.53 690.27z" fill="none" stroke="#000" stroke-width="2.0001"/>
  <path d="m276.54 688.68v-3.096h2.376v3.096" fill="none" stroke="#000" stroke-width="2.0001"/>
  <path d="m278.918,688.682c-.576.216-1.08.504-1.584.792" fill="none" stroke="#000" stroke-width="2.0001"/>
  <path d="m278.92 688.68h2.304" fill="none" stroke="#000" stroke-width="2.0001"/>
  <path d="m301.53 687.89z" fill="none" stroke="#000" stroke-width="2.0001"/>
  <path d="m305.41 688.68v-0.792" fill="none" stroke="#000" stroke-width="2.0001"/>
  <path d="m328.02 688.68v-1.584" fill="none" stroke="#000" stroke-width="2.0001"/>
  <path d="m301.526,687.89h-1.584c.216-.648.504-1.296.792-1.944 1.296-.144 2.592-.288 3.888-.36v1.512" fill="none" stroke="#000" stroke-width="2.0001"/>
  <path d="m301.526,687.89c1.008-.288 2.016-.576 3.096-.792" fill="none" stroke="#000" stroke-width="2.0001"/>
  <path d="m305.41 687.89v0.792" fill="none" stroke="#000" stroke-width="2.0001"/>
  <path d="m310.89 684.79h-1.584l-3.888 3.888" fill="none" stroke="#000" stroke-width="2.0001"/>
  <path d="m256.31 687.1c-2.736 0-5.472 0.792-5.472-2.304" fill="none" stroke="#000" stroke-width="2.0001"/>
  <path d="m256.31,687.098v-2.304l-1.584-1.584c-.792.792-3.096.792-3.888,1.584" fill="none" stroke="#000" stroke-width="2.0001"/>
  <path d="m304.62 687.1 0.792 0.792" fill="none" stroke="#000" stroke-width="2.0001"/>
  <path d="m328.022,687.098h-1.584c-.504-.792-1.008-1.584-1.512-2.304-2.16,0-7.632.216-9.36-.792" fill="none" stroke="#000" stroke-width="2.0001"/>
  <path d="m328.02 687.1h4.68" fill="none" stroke="#000" stroke-width="2.0001"/>
  <path d="m332.702,687.098c.216-1.08.504-2.088.792-3.096h1.512v-1.584c3.168,0 3.168,0 4.68-.792" fill="none" stroke="#000" stroke-width="2.0001"/>
  <path d="m349.838,687.098c.792-.792.792-.792.792-2.304" fill="none" stroke="#000" stroke-width="2.0001"/>
  <path d="m354.52 686.31h-1.512v-1.512" fill="none" stroke="#000" stroke-width="2.0001"/>
  <path d="m361.57 686.31c-3.168-2.88-5.112-1.512-8.568-1.512" fill="none" stroke="#000" stroke-width="2.0001"/>
  <path d="m250.84 684.79c-2.232 0-7.2-1.584-8.568-3.168" fill="none" stroke="#000" stroke-width="2.0001"/>
  <path d="m310.89 684.79v-1.584h1.512" fill="none" stroke="#000" stroke-width="2.0001"/>
  <path d="m312.4 684.79h-1.512" fill="none" stroke="#000" stroke-width="2.0001"/>
  <path d="m312.4 684.79v-1.584" fill="none" stroke="#000" stroke-width="2.0001"/>
  <path d="m313.982,684.002c-.576.216-1.08.504-1.584.792" fill="none" stroke="#000" stroke-width="2.0001"/>
  <path d="m350.63 684.79c-1.584-0.792-3.168-1.584-4.68-2.376" fill="none" stroke="#000" stroke-width="2.0001"/>
  <path d="m350.63 684.79h2.376" fill="none" stroke="#000" stroke-width="2.0001"/>
  <path d="m313.98 684c-0.576-0.288-1.08-0.576-1.584-0.792" fill="none" stroke="#000" stroke-width="2.0001"/>
  <path d="m315.57 684h-1.584" fill="none" stroke="#000" stroke-width="2.0001"/>
  <path d="m315.566,684.002c.216-.576.504-1.08.792-1.584h1.512" fill="none" stroke="#000" stroke-width="2.0001"/>
  <path d="m238.38 682.42c2.304 0 2.304 0 3.888-0.792" fill="none" stroke="#000" stroke-width="2.0001"/>
  <path d="m242.27 681.63v-3.888" fill="none" stroke="#000" stroke-width="2.0001"/>
  <path d="m398.22 679.32v1.584h-1.584v-1.584" fill="none" stroke="#000" stroke-width="2.0001"/>
  <path d="m393.54 678.53c-2.088 2.088-10.584 1.584-13.248 1.584l-1.584-1.584" fill="none" stroke="#000" stroke-width="2.0001"/>
  <path d="m407.58 678.53v1.584h-1.584v-1.584" fill="none" stroke="#000" stroke-width="2.0001"/>
  <path d="m282.806,679.322v-1.584c1.584.792 1.584.792 1.584,1.584h-1.584z" fill="none" stroke="#000" stroke-width="2.0001"/>
  <path d="m369.35 679.32c-0.792-1.584-1.584-3.168-2.376-4.68" fill="none" stroke="#000" stroke-width="2.0001"/>
  <path d="m396.638,679.322c-.792-.792-.792-.792-3.096-.792" fill="none" stroke="#000" stroke-width="2.0001"/>
  <path d="m397.43 679.32h-0.792" fill="none" stroke="#000" stroke-width="2.0001"/>
  <path d="m398.22 679.32h-0.792" fill="none" stroke="#000" stroke-width="2.0001"/>
  <path d="m472.31,678.53c-2.376,0-3.168.792-6.264.792-1.8-1.8-8.352-.792-10.944-.792-2.808-2.808-33.552-.792-38.952-.792-1.584,1.584-6.264.792-8.568.792" fill="none" stroke="#000" stroke-width="2.0001"/>
  <path d="m242.27,677.738c-7.488,0-14.832.792-21.888.792-1.728-1.728-7.56-.792-10.08-.792" fill="none" stroke="#000" stroke-width="2.0001"/>
  <path d="m393.54 678.53c-1.08-1.296-2.16-2.592-3.168-3.888" fill="none" stroke="#000" stroke-width="2.0001"/>
  <path d="m397.43 679.32z" fill="none" stroke="#000" stroke-width="2.0001"/>
  <path d="m399.014,677.738c-.288.504-.576,1.008-.792,1.584" fill="none" stroke="#000" stroke-width="2.0001"/>
  <path d="m406 678.53c-2.376 0-3.096-0.792-6.984-0.792" fill="none" stroke="#000" stroke-width="2.0001"/>
  <path d="m406 678.53h1.584" fill="none" stroke="#000" stroke-width="2.0001"/>
  <path d="m242.27,677.738c.792-.792 3.096-.792 3.888-1.512" fill="none" stroke="#000" stroke-width="2.0001"/>
  <path d="m399.01 677.74z" fill="none" stroke="#000" stroke-width="2.0001"/>
  <path d="m366.974,674.642c-2.52,0-2.448,1.008-4.608,1.584-.504-.36-1.008-.72-1.44-1.008 .72-3.168 1.296-3.96 3.744-6.048" fill="none" stroke="#000" stroke-width="2.0001"/>
  <path d="m344.37 675.43v-2.376" fill="none" stroke="#000" stroke-width="2.0001"/>
  <path d="m122.966,674.642c.792-.792.792-.792 2.304-.792v-2.304c2.088-2.088 3.24-1.584 6.264-1.584" fill="none" stroke="#000" stroke-width="2.0001"/>
  <path d="m366.97 674.64c0-1.584 0-1.584 0.792-2.376" fill="none" stroke="#000" stroke-width="2.0001"/>
  <path d="m387.28 674.64z" fill="none" stroke="#000" stroke-width="2.0001"/>
  <path d="m236.8 673.85v-1.584" fill="none" stroke="#000" stroke-width="2.0001"/>
  <path d="m283.6 673.85z" fill="none" stroke="#000" stroke-width="2.0001"/>
  <path d="m384.18 673.06c-5.616 0-11.232-0.792-16.416-0.792" fill="none" stroke="#000" stroke-width="2.0001"/>
  <path d="m138.52 673.06h-2.304v-1.512" fill="none" stroke="#000" stroke-width="2.0001"/>
  <path d="m235.214,673.058c.504-.288 1.008-.576 1.584-.792" fill="none" stroke="#000" stroke-width="2.0001"/>
  <path d="m285.9 673.06z" fill="none" stroke="#000" stroke-width="2.0001"/>
  <path d="m344.37 673.06-3.096-3.096" fill="none" stroke="#000" stroke-width="2.0001"/>
  <path d="m236.8 672.27v-3.888" fill="none" stroke="#000" stroke-width="2.0001"/>
  <path d="m346.74 671.55-2.376 1.512" fill="none" stroke="#000" stroke-width="2.0001"/>
  <path d="m367.77 672.27-3.096-3.096" fill="none" stroke="#000" stroke-width="2.0001"/>
  <path d="m139.31,669.962c-.504.432-1.008.864-1.44,1.368 .432-.504.936-.936 1.44-1.368z" fill="none" stroke="#000" stroke-width="2.0001"/>
  <path d="m155.73 671.55z" fill="none" stroke="#000" stroke-width="2.0001"/>
  <path d="m254.73 671.55c-4.824 0-8.064 0.576-11.664-3.168" fill="none" stroke="#000" stroke-width="2.0001"/>
  <path d="m346.742,671.546c-.792-1.584-.792-1.584-.792-3.96" fill="none" stroke="#000" stroke-width="2.0001"/>
  <path d="m349.046,667.586c0,1.584 0,1.584.792,2.736-.288.36-.576.792-.792,1.224h-2.304" fill="none" stroke="#000" stroke-width="2.0001"/>
  <path d="m163.5 670.75v-2.376" fill="none" stroke="#000" stroke-width="2.0001"/>
  <path d="m326.44 670.75c1.296-1.296 4.392-2.376 6.264-2.376" fill="none" stroke="#000" stroke-width="2.0001"/>
  <path d="m139.31 669.96c2.952-2.952 12.6-2.376 15.624-2.376" fill="none" stroke="#000" stroke-width="2.0001"/>
  <path d="m341.27 669.96c-2.952 0-5.256-1.584-8.568-1.584" fill="none" stroke="#000" stroke-width="2.0001"/>
  <path d="m341.27,669.962c.216-1.08.504-2.088.792-3.096" fill="none" stroke="#000" stroke-width="2.0001"/>
  <path d="m229.742,666.866c-1.584-1.728-22.536,1.224-22.968,1.512-3.456-2.016-11.808-.792-15.984-.792-1.584,1.584-16.848,1.584-21.096,1.584-.504-.576-1.008-1.08-1.512-1.584-3.096,0-3.096,0-4.68.792" fill="none" stroke="#000" stroke-width="2.0001"/>
  <path d="m256.31 669.17h1.512c3.168-3.528 4.68-6.624 6.264-7.776" fill="none" stroke="#000" stroke-width="2.0001"/>
  <path d="m299.94 668.38-0.792-0.792c-3.096 3.096-11.664 2.232-11.664-3.096" fill="none" stroke="#000" stroke-width="2.0001"/>
  <path d="m364.67 669.17v-3.096" fill="none" stroke="#000" stroke-width="2.0001"/>
  <path d="m156.446,667.586c-.288.216-.504.504-.72.792l-.792-.792" fill="none" stroke="#000" stroke-width="2.0001"/>
  <path d="m158.822,667.586c-.288.216-.576.504-.792.792l-.792-.792" fill="none" stroke="#000" stroke-width="2.0001"/>
  <path d="m163.502,668.378c-.792-.792-.792-.792-4.68-.792" fill="none" stroke="#000" stroke-width="2.0001"/>
  <path d="m229.742,667.586c-.288.216-.504.504-.72.792 .216-.288.432-.576.72-.792z" fill="none" stroke="#000" stroke-width="2.0001"/>
  <path d="m231.326,666.866v1.512c-.576-.288-1.08-.576-1.584-.792" fill="none" stroke="#000" stroke-width="2.0001"/>
  <path d="m236.8 668.38c-2.16-1.368-2.88-1.512-5.472-1.512" fill="none" stroke="#000" stroke-width="2.0001"/>
  <path d="m241.48 668.38h-4.68" fill="none" stroke="#000" stroke-width="2.0001"/>
  <path d="m241.48 668.38v-1.512h1.584" fill="none" stroke="#000" stroke-width="2.0001"/>
  <path d="m243.06 668.38h-1.584" fill="none" stroke="#000" stroke-width="2.0001"/>
  <path d="m243.06 668.38v-1.512" fill="none" stroke="#000" stroke-width="2.0001"/>
  <path d="m332.702,668.378c-1.8-3.24-3.312-10.872-7.776-10.872-.288.216-.576.432-.792.72" fill="none" stroke="#000" stroke-width="2.0001"/>
  <path d="m154.93 667.59h1.512" fill="none" stroke="#000" stroke-width="2.0001"/>
  <path d="m156.45 667.59h0.792" fill="none" stroke="#000" stroke-width="2.0001"/>
  <path d="m157.24 667.59h-0.792" fill="none" stroke="#000" stroke-width="2.0001"/>
  <path d="m158.822,667.586c-.288-.288-.576-.504-.792-.72-.288.216-.576.432-.792.72" fill="none" stroke="#000" stroke-width="2.0001"/>
  <path d="m229.74 667.59v-0.72" fill="none" stroke="#000" stroke-width="2.0001"/>
  <path d="m252.35,667.586c.792-1.512.792-1.512.792-3.888" fill="none" stroke="#000" stroke-width="2.0001"/>
  <path d="m256.31,667.586c.144-.216.144-.216 0,0z" fill="none" stroke="#000" stroke-width="2.0001"/>
  <path d="m345.95,667.586c-.576-.288-1.08-.504-1.584-.72" fill="none" stroke="#000" stroke-width="2.0001"/>
  <path d="m345.95 667.59h3.096" fill="none" stroke="#000" stroke-width="2.0001"/>
  <path d="m349.05 667.59c3.312-1.512 4.176-1.008 7.056-3.888" fill="none" stroke="#000" stroke-width="2.0001"/>
  <path d="m229.74 666.87v0.72" fill="none" stroke="#000" stroke-width="2.0001"/>
  <path d="m231.326,666.866c-.576.216-1.08.432-1.584.72" fill="none" stroke="#000" stroke-width="2.0001"/>
  <path d="m243.06 666.87c3.744-3.168 6.192-5.4 6.192-10.152" fill="none" stroke="#000" stroke-width="2.0001"/>
  <path d="m342.062,666.866c0-1.584 0-1.584.792-1.584 .504.504 1.008,1.008 1.512,1.584" fill="none" stroke="#000" stroke-width="2.0001"/>
  <path d="m343.65 666.87h-1.584" fill="none" stroke="#000" stroke-width="2.0001"/>
  <path d="m343.65 666.87h0.72" fill="none" stroke="#000" stroke-width="2.0001"/>
  <path d="m344.37 666.87h-0.72" fill="none" stroke="#000" stroke-width="2.0001"/>
  <path d="m345.158,665.282c-.288.504-.576,1.008-.792,1.584" fill="none" stroke="#000" stroke-width="2.0001"/>
  <path d="m364.67,666.074c-2.952-1.44-5.472.288-7.776-2.376" fill="none" stroke="#000" stroke-width="2.0001"/>
  <path d="m364.67,666.074h2.304c.216-.576.504-1.08.792-1.584" fill="none" stroke="#000" stroke-width="2.0001"/>
  <path d="m345.16 665.28c0.504-0.576 1.008-1.08 1.584-1.584" fill="none" stroke="#000" stroke-width="2.0001"/>
  <path d="m346.742,663.698c-.144.504-.288,1.008-.432,1.584h-1.152" fill="none" stroke="#000" stroke-width="2.0001"/>
  <path d="m287.49 664.49c-3.168 0-3.888-1.512-3.888-4.68" fill="none" stroke="#000" stroke-width="2.0001"/>
  <path d="m287.49 664.49c1.8-1.584 3.6-3.168 5.472-4.68v-1.584c9.432-9.144 36.504-31.176 47.52-31.176" fill="none" stroke="#000" stroke-width="2.0001"/>
  <path d="m367.766,664.49c0-3.096 0-3.096-.792-4.32-3.744-.144-5.256,1.224-8.568,1.224-.504.72-1.008,1.512-1.512,2.304" fill="none" stroke="#000" stroke-width="2.0001"/>
  <path d="m370.934,663.698c-1.08.216-2.16.504-3.168.792" fill="none" stroke="#000" stroke-width="2.0001"/>
  <path d="m267.182,659.81c-.144,1.008-.288,2.016-.432,3.096-.576.144-1.152.36-1.728.576-.36-.72-.648-1.44-.936-2.088" fill="none" stroke="#000" stroke-width="2.0001"/>
  <path d="m346.742,663.698c.504-.288 1.008-.576 1.584-.792" fill="none" stroke="#000" stroke-width="2.0001"/>
  <path d="m356.102,663.698c-.792-.792-.792-.792-7.776-.792" fill="none" stroke="#000" stroke-width="2.0001"/>
  <path d="m356.89 663.7h-0.792" fill="none" stroke="#000" stroke-width="2.0001"/>
  <path d="m348.326,662.906v-10.08c-1.08.216-2.16.432-3.168.72" fill="none" stroke="#000" stroke-width="2.0001"/>
  <path d="m264.09 661.39c1.584-1.584 1.584-1.584 3.096-1.584" fill="none" stroke="#000" stroke-width="2.0001"/>
  <path d="m267.18 659.81c1.512-1.08 3.096-2.088 4.68-3.096" fill="none" stroke="#000" stroke-width="2.0001"/>
  <path d="m283.6 659.81c-4.104-4.104-4.392-4.68-10.152-4.68" fill="none" stroke="#000" stroke-width="2.0001"/>
  <path d="m283.6 659.81c1.296-1.08 2.592-2.088 3.888-3.096" fill="none" stroke="#000" stroke-width="2.0001"/>
  <path d="m249.254,656.714-1.44-1.44c.432.216.936.432 1.44.648" fill="none" stroke="#000" stroke-width="2.0001"/>
  <path d="m249.25 656.71v-0.792" fill="none" stroke="#000" stroke-width="2.0001"/>
  <path d="m271.86 656.71v-1.584h1.584" fill="none" stroke="#000" stroke-width="2.0001"/>
  <path d="m273.446,655.13c-.144.504-.288,1.008-.432,1.584h-1.152" fill="none" stroke="#000" stroke-width="2.0001"/>
  <path d="m249.25 655.92v0.792" fill="none" stroke="#000" stroke-width="2.0001"/>
  <path d="m252.35,651.242 .792.792c-1.512,1.512-1.512,2.952-3.888,4.68" fill="none" stroke="#000" stroke-width="2.0001"/>
  <path d="m324.13 655.13z" fill="none" stroke="#000" stroke-width="2.0001"/>
  <path d="m345.158,653.546c-.288.504-.576,1.008-.792,1.584-.288-.288-.504-.576-.72-.792" fill="none" stroke="#000" stroke-width="2.0001"/>
  <path d="m343.65 654.34h-5.472c0-5.472 7.776-22.464 10.872-27.72-0.504-0.648-1.008-1.296-1.512-1.872h-5.472" fill="none" stroke="#000" stroke-width="2.0001"/>
  <path d="m343.646,654.338c.504-.288 1.008-.576 1.512-.792" fill="none" stroke="#000" stroke-width="2.0001"/>
  <path d="m252.35,651.242c-1.512-.792-1.512-.792-1.512-1.584h1.512" fill="none" stroke="#000" stroke-width="2.0001"/>
  <path d="m252.35 651.24v-1.584" fill="none" stroke="#000" stroke-width="2.0001"/>
  <path d="m252.35 649.66c5.4-4.176 6.408-12.6 11.736-16.344 0-2.376 0-2.376-0.792-3.168" fill="none" stroke="#000" stroke-width="2.0001"/>
  <path d="m326.44 648.87z" fill="none" stroke="#000" stroke-width="2.0001"/>
  <path d="m331.118,643.466c.432-.504.864-1.008 1.368-1.44-.504.432-.936.936-1.368,1.44z" fill="none" stroke="#000" stroke-width="2.0001"/>
  <path d="m299.942,639.506c0-1.512 1.584-3.096 1.584-4.68-.288-.288-.576-.504-.792-.72" fill="none" stroke="#000" stroke-width="2.0001"/>
  <path d="m339.69 633.31c1.512-1.512 1.584-1.8 1.584-3.888" fill="none" stroke="#000" stroke-width="2.0001"/>
  <path d="m253.14 630.94c-0.792-0.792-14.76-1.512-15.552-2.304" fill="none" stroke="#000" stroke-width="2.0001"/>
  <path d="m263.294,630.146h-1.584c.792-1.512.792-1.512 1.584-1.512" fill="none" stroke="#000" stroke-width="2.0001"/>
  <path d="m263.29 630.15v-1.512" fill="none" stroke="#000" stroke-width="2.0001"/>
  <path d="m341.27,629.426-.792-.792c.216-.288.504-.576.792-.792" fill="none" stroke="#000" stroke-width="2.0001"/>
  <path d="m232.91 627.84c-9.144 9.144-18.72-10.224-18.72-16.416 2.376-2.376-0.576-6.264 1.512-8.568" fill="none" stroke="#000" stroke-width="2.0001"/>
  <path d="m237.59,628.634c-2.376,0-3.168-.792-4.68-.792" fill="none" stroke="#000" stroke-width="2.0001"/>
  <path d="m237.59 628.63c1.512-2.016 1.512-2.016 3.096-2.376" fill="none" stroke="#000" stroke-width="2.0001"/>
  <path d="m263.294,628.634c.216-.576.504-1.08.792-1.584l.792.792" fill="none" stroke="#000" stroke-width="2.0001"/>
  <path d="m264.878,627.842c-.576.216-1.08.504-1.584.792" fill="none" stroke="#000" stroke-width="2.0001"/>
  <path d="m303.038,628.634c-.288-1.296-.504-2.592-.72-3.888" fill="none" stroke="#000" stroke-width="2.0001"/>
  <path d="m341.27,627.842 .792.792c-.288.216-.576.504-.792.792" fill="none" stroke="#000" stroke-width="2.0001"/>
  <path d="m232.91 627.84c0-4.968-4.68-8.784-4.68-13.248" fill="none" stroke="#000" stroke-width="2.0001"/>
  <path d="m264.88 627.84h2.304c3.816-7.92 11.16-13.392 13.248-22.608" fill="none" stroke="#000" stroke-width="2.0001"/>
  <path d="m341.27,627.842-.792-.792" fill="none" stroke="#000" stroke-width="2.0001"/>
  <path d="m340.48 627.05v-2.304h1.584" fill="none" stroke="#000" stroke-width="2.0001"/>
  <path d="m341.27,627.05v.792" fill="none" stroke="#000" stroke-width="2.0001"/>
  <path d="m342.06 624.75c0 1.512 0 1.512-0.792 2.304" fill="none" stroke="#000" stroke-width="2.0001"/>
  <path d="m292.96 621.58c0.792-3.384 3.888-5.688 3.888-9.36" fill="none" stroke="#000" stroke-width="2.0001"/>
  <path d="m303.038,620.786c.216-.288.504-.504.792-.72-.288.216-.576.432-.792.72z" fill="none" stroke="#000" stroke-width="2.0001"/>
  <path d="m305.414,617.69c1.656-7.992 9.36-10.512 9.36-20.304-.792-.72-.792-.72-3.096-.72" fill="none" stroke="#000" stroke-width="2.0001"/>
  <path d="m228.23 614.59c-2.592 0-2.376-1.08-2.376-3.168" fill="none" stroke="#000" stroke-width="2.0001"/>
  <path d="m228.23,614.594c-.288-1.08-.576-2.16-.792-3.168" fill="none" stroke="#000" stroke-width="2.0001"/>
  <path d="m292.17 614.59c1.656-1.296 2.52-2.376 4.68-2.376" fill="none" stroke="#000" stroke-width="2.0001"/>
  <path d="m296.85 612.22c2.52-3.168 8.928-8.856 9.72-13.248 1.152-0.792 2.304-1.584 3.528-2.304" fill="none" stroke="#000" stroke-width="2.0001"/>
  <path d="m225.85 611.43c-0.504-0.792-1.008-1.584-1.512-2.304" fill="none" stroke="#000" stroke-width="2.0001"/>
  <path d="m227.44 611.43h-1.584" fill="none" stroke="#000" stroke-width="2.0001"/>
  <path d="m227.44 611.43v-3.096" fill="none" stroke="#000" stroke-width="2.0001"/>
  <path d="m221.966,610.706c.216-.576.504-1.08.792-1.584" fill="none" stroke="#000" stroke-width="2.0001"/>
  <path d="m222.76 609.12v-1.584" fill="none" stroke="#000" stroke-width="2.0001"/>
  <path d="m224.34 609.12h-1.584" fill="none" stroke="#000" stroke-width="2.0001"/>
  <path d="m224.34 609.12c0.504-0.576 1.008-1.08 1.512-1.584" fill="none" stroke="#000" stroke-width="2.0001"/>
  <path d="m227.438,608.33c-.576-.288-1.08-.576-1.584-.792" fill="none" stroke="#000" stroke-width="2.0001"/>
  <path d="m227.438,608.33c-.288-.576-.576-1.08-.792-1.584-.288.216-.576.504-.792.792" fill="none" stroke="#000" stroke-width="2.0001"/>
  <path d="m222.76 607.54c-2.448-0.648-3.168-2.664-4.68-4.68" fill="none" stroke="#000" stroke-width="2.0001"/>
  <path d="m222.76 607.54c0.504-0.504 1.008-1.008 1.584-1.512" fill="none" stroke="#000" stroke-width="2.0001"/>
  <path d="m225.85 607.54v-0.792" fill="none" stroke="#000" stroke-width="2.0001"/>
  <path d="m225.85 606.75v0.792" fill="none" stroke="#000" stroke-width="2.0001"/>
  <path d="m224.34 606.03c-0.576-2.808-1.224-3.528-3.168-5.472" fill="none" stroke="#000" stroke-width="2.0001"/>
  <path d="m225.854,606.746c-.504-.288-1.008-.504-1.512-.72" fill="none" stroke="#000" stroke-width="2.0001"/>
  <path d="m280.43,605.234c-.288-.576-.504-1.08-.72-1.584" fill="none" stroke="#000" stroke-width="2.0001"/>
  <path d="m282.806,602.066v1.584c-.792.504-1.584,1.008-2.376,1.584" fill="none" stroke="#000" stroke-width="2.0001"/>
  <path d="m279.71,603.65h-1.584c.216-.576.504-1.08.792-1.584" fill="none" stroke="#000" stroke-width="2.0001"/>
  <path d="m279.71,603.65c-.288-.576-.576-1.08-.792-1.584" fill="none" stroke="#000" stroke-width="2.0001"/>
  <path d="m215.7 602.86c0-2.304 0-2.304-0.72-3.888" fill="none" stroke="#000" stroke-width="2.0001"/>
  <path d="m218.08 602.86h-2.376" fill="none" stroke="#000" stroke-width="2.0001"/>
  <path d="m218.078,602.858c.216-.288.504-.576.792-.792" fill="none" stroke="#000" stroke-width="2.0001"/>
  <path d="m218.87,602.066c-.288.216-.576.504-.792.792" fill="none" stroke="#000" stroke-width="2.0001"/>
  <path d="m221.174,600.554c-.792.504-1.584,1.008-2.304,1.512" fill="none" stroke="#000" stroke-width="2.0001"/>
  <path d="m278.92 602.07 1.512-1.512" fill="none" stroke="#000" stroke-width="2.0001"/>
  <path d="m282.81 602.07v-0.72" fill="none" stroke="#000" stroke-width="2.0001"/>
  <path d="m286.69 598.18v1.584c-1.296 0.72-2.592 1.512-3.888 2.304" fill="none" stroke="#000" stroke-width="2.0001"/>
  <path d="m218.87 602.07z" fill="none" stroke="#000" stroke-width="2.0001"/>
  <path d="m282.81 602.07c-0.576-0.504-1.08-1.008-1.584-1.512" fill="none" stroke="#000" stroke-width="2.0001"/>
  <path d="m282.81 601.35v0.72" fill="none" stroke="#000" stroke-width="2.0001"/>
  <path d="m220.38 600.55z" fill="none" stroke="#000" stroke-width="2.0001"/>
  <path d="m220.38 600.55h0.792" fill="none" stroke="#000" stroke-width="2.0001"/>
  <path d="m221.17 600.55h-0.792" fill="none" stroke="#000" stroke-width="2.0001"/>
  <path d="m280.43 600.55v-1.584" fill="none" stroke="#000" stroke-width="2.0001"/>
  <path d="m281.22 600.55h-0.792" fill="none" stroke="#000" stroke-width="2.0001"/>
  <path d="m282.81 601.35z" fill="none" stroke="#000" stroke-width="2.0001"/>
  <path d="m221.17 600.55z" fill="none" stroke="#000" stroke-width="2.0001"/>
  <path d="m282.014,599.762c-.288.216-.576.504-.792.792" fill="none" stroke="#000" stroke-width="2.0001"/>
  <path d="m214.98 598.97c-8.136 0-1.872-16.344 6.192-16.344" fill="none" stroke="#000" stroke-width="2.0001"/>
  <path d="m214.98 598.97c1.512-0.792 1.872-2.304 3.888-3.096" fill="none" stroke="#000" stroke-width="2.0001"/>
  <path d="m221.17 598.97c-0.792-1.08-1.584-2.088-2.304-3.096" fill="none" stroke="#000" stroke-width="2.0001"/>
  <path d="m280.43,598.97c0-2.304 0-2.304-.72-3.096" fill="none" stroke="#000" stroke-width="2.0001"/>
  <path d="m282.014,599.762c-.576-.288-1.08-.576-1.584-.792" fill="none" stroke="#000" stroke-width="2.0001"/>
  <path d="m286.69 598.18c-1.728-1.368-4.104-4.464-6.264-2.304" fill="none" stroke="#000" stroke-width="2.0001"/>
  <path d="m314.774,580.25c1.8-1.8 2.52-4.104 3.888-5.472-.792-.792-.792-2.304-2.304-3.888h-3.168c-4.752,5.184-24.192,19.872-24.192,26.496-.792.216-1.584.504-2.304.792" fill="none" stroke="#000" stroke-width="2.0001"/>
  <path d="m310.09 596.67v-1.584" fill="none" stroke="#000" stroke-width="2.0001"/>
  <path d="m311.68 596.67h-1.584" fill="none" stroke="#000" stroke-width="2.0001"/>
  <path d="m311.68 596.67-1.584-1.584" fill="none" stroke="#000" stroke-width="2.0001"/>
  <path d="m218.87,595.874c0-3.24.432-3.672 2.304-6.264" fill="none" stroke="#000" stroke-width="2.0001"/>
  <path d="m275.75 595.87h1.584" fill="none" stroke="#000" stroke-width="2.0001"/>
  <path d="m277.334,595.874c-.288-1.08-.576-2.16-.792-3.168h1.584" fill="none" stroke="#000" stroke-width="2.0001"/>
  <path d="m279.71 595.87h-2.376" fill="none" stroke="#000" stroke-width="2.0001"/>
  <path d="m279.71 595.87v-1.584" fill="none" stroke="#000" stroke-width="2.0001"/>
  <path d="m280.43 595.87h-0.72" fill="none" stroke="#000" stroke-width="2.0001"/>
  <path d="m310.09 595.08c0-4.032 1.8-5.976 3.888-9.36l-0.792-0.792" fill="none" stroke="#000" stroke-width="2.0001"/>
  <path d="m279.71 594.29-1.584-1.584" fill="none" stroke="#000" stroke-width="2.0001"/>
  <path d="m279.71 594.29v-1.584" fill="none" stroke="#000" stroke-width="2.0001"/>
  <path d="m278.126,592.706c.504-.288 1.008-.504 1.584-.72" fill="none" stroke="#000" stroke-width="2.0001"/>
  <path d="m279.71 592.71v-0.72" fill="none" stroke="#000" stroke-width="2.0001"/>
  <path d="m279.71 591.99v0.72" fill="none" stroke="#000" stroke-width="2.0001"/>
  <path d="m285.11,591.986c-1.8.216-3.6.432-5.4.72" fill="none" stroke="#000" stroke-width="2.0001"/>
  <path d="m279.71 591.99z" fill="none" stroke="#000" stroke-width="2.0001"/>
  <path d="m279.71,590.402c-.792-.792-.792-.792-.792-3.888" fill="none" stroke="#000" stroke-width="2.0001"/>
  <path d="m221.17 589.61v-6.984" fill="none" stroke="#000" stroke-width="2.0001"/>
  <path d="m226.65 586.51c0 3.168-3.024 2.664-5.472 3.096" fill="none" stroke="#000" stroke-width="2.0001"/>
  <path d="m226.646,586.514c-.576-.288-1.08-.576-1.584-.792 .216-.288.504-.576.792-.792l.792.792" fill="none" stroke="#000" stroke-width="2.0001"/>
  <path d="m226.65 586.51v-0.792" fill="none" stroke="#000" stroke-width="2.0001"/>
  <path d="m278.92 586.51c-2.808 0-3.6-2.592-6.264-3.168" fill="none" stroke="#000" stroke-width="2.0001"/>
  <path d="m278.918,586.514c.216-.288.504-.576.792-.792" fill="none" stroke="#000" stroke-width="2.0001"/>
  <path d="m226.65 585.72v0.792" fill="none" stroke="#000" stroke-width="2.0001"/>
  <path d="m230.53 577.95c0 4.464-0.504 6.12-3.888 8.568" fill="none" stroke="#000" stroke-width="2.0001"/>
  <path d="m272.65 583.35c-2.088 1.656-2.808 2.376-5.472 2.376-0.504-1.08-1.008-2.088-1.512-3.096" fill="none" stroke="#000" stroke-width="2.0001"/>
  <path d="m279.71,585.722c-.288.216-.576.504-.792.792" fill="none" stroke="#000" stroke-width="2.0001"/>
  <path d="m279.71,585.722v-1.584h1.512c-.144.504-.288,1.008-.432,1.584h-1.08z" fill="none" stroke="#000" stroke-width="2.0001"/>
  <path d="m313.19,584.93c-1.512-.792-1.512-.792-1.512-1.584h1.512" fill="none" stroke="#000" stroke-width="2.0001"/>
  <path d="m313.19 584.93v-1.584" fill="none" stroke="#000" stroke-width="2.0001"/>
  <path d="m272.654,583.346c-.288-.504-.576-1.008-.792-1.512" fill="none" stroke="#000" stroke-width="2.0001"/>
  <path d="m313.19 583.35v-1.512" fill="none" stroke="#000" stroke-width="2.0001"/>
  <path d="m221.17 582.63c3.744-3.744 4.032-4.68 9.36-4.68" fill="none" stroke="#000" stroke-width="2.0001"/>
  <path d="m265.67 582.63c-6.48 0-11.664-3.96-16.416-3.96" fill="none" stroke="#000" stroke-width="2.0001"/>
  <path d="m265.67,582.626c.72-.792.72-.792 6.192-.792" fill="none" stroke="#000" stroke-width="2.0001"/>
  <path d="m271.86 581.83c-1.296-2.376-2.592-4.752-3.888-7.056" fill="none" stroke="#000" stroke-width="2.0001"/>
  <path d="m313.19,581.834-.792-.792c.216-.288.504-.576.792-.792" fill="none" stroke="#000" stroke-width="2.0001"/>
  <path d="m313.982,581.042c-.288.216-.576.504-.792.792" fill="none" stroke="#000" stroke-width="2.0001"/>
  <path d="m313.19,580.25c.216-.288.504-.576.792-.792l.792.792" fill="none" stroke="#000" stroke-width="2.0001"/>
  <path d="m314.774,580.25c-.288.216-.576.504-.792.792" fill="none" stroke="#000" stroke-width="2.0001"/>
  <path d="m249.254,578.666c-.576.216-1.08.504-1.584.792v-1.512" fill="none" stroke="#000" stroke-width="2.0001"/>
  <path d="m249.254,578.666c-.576-.288-1.08-.504-1.584-.72" fill="none" stroke="#000" stroke-width="2.0001"/>
  <path d="m230.53 577.95c4.464-3.528 11.952-4.248 17.136-1.584" fill="none" stroke="#000" stroke-width="2.0001"/>
  <path d="m247.67 577.95v-1.584" fill="none" stroke="#000" stroke-width="2.0001"/>
  <path d="m247.67,576.362c0-1.584 0-1.584.792-2.376" fill="none" stroke="#000" stroke-width="2.0001"/>
  <path d="m267.97 574.78c-3.744-1.728-3.744-1.728-4.68-3.096" fill="none" stroke="#000" stroke-width="2.0001"/>
  <path d="m267.974,574.778c.216-.504.504-1.008.792-1.512 .216.216.504.432.792.72-.288.216-.576.504-.792.792" fill="none" stroke="#000" stroke-width="2.0001"/>
  <path d="m268.77 574.78h-0.792" fill="none" stroke="#000" stroke-width="2.0001"/>
  <path d="m248.46 573.99c0.504-0.792 1.008-1.584 1.584-2.304h3.096v1.584" fill="none" stroke="#000" stroke-width="2.0001"/>
  <path d="m253.142,573.266c-.792.72-.792.72-4.68.72" fill="none" stroke="#000" stroke-width="2.0001"/>
  <path d="m253.14 573.27h8.568c0.504-0.576 1.008-1.08 1.584-1.584" fill="none" stroke="#000" stroke-width="2.0001"/>
  <path d="m263.29 571.68v-1.584" fill="none" stroke="#000" stroke-width="2.0001"/>
  <path d="m264.09 571.68h-0.792" fill="none" stroke="#000" stroke-width="2.0001"/>
  <path d="m263.294,570.098c.504.216 1.008.504 1.584.792-.288.216-.576.504-.792.792" fill="none" stroke="#000" stroke-width="2.0001"/>
  <path d="m263.29 570.1c-1.584 0-2.304-0.792-3.888-0.792v-1.512h1.584" fill="none" stroke="#000" stroke-width="2.0001"/>
  <path d="m253.93 568.59h1.584" fill="none" stroke="#000" stroke-width="2.0001"/>
  <path d="m267.311,607.407c-.417-.729-1.147-1.668-1.355-2.502-.104-.521 0-1.772 0-2.293 0-1.877.625-3.649 1.668-5.213 .417-.626.938-1.355 1.46-1.981 1.146-1.355 2.606-3.023 4.378-3.649 1.668-.625 3.962-1.147 5.734-.417 .313.104 1.147.938 1.46.938 .625,0 .938-.729 1.459-1.042 1.043-.73 2.19-1.251 3.545-1.355 1.46-.105 3.753-.209 5.213,0 1.042.208 2.398.938 3.44,1.251 2.294.834 4.692,2.085 6.047,4.274 .417.73.521,1.877.521,2.711h1.147l1.355-.313c1.356-.104 3.024,0 4.379.104l1.147,1.564c.313.417.521.938.73,1.355 .104.209.521.522.625.73l.521,1.564c.105.625.522,1.459.73,2.085 .209,0 .626.104.834.104 .834-.208 1.773-.938 2.398-1.564 .521,0 2.294,1.356 2.815,1.669 .208-.939 1.668-1.564 2.502-1.564h5.526 3.336c1.355,0 1.772.625 2.71,1.459l.834.73c.73.938 1.356,2.189 1.668,3.232 1.043,0 2.711,1.147 3.441,1.668 1.042.73 1.564.834 1.564,2.085s.104,2.606-.313,3.753l-.521,1.147c-.417,1.251-1.147,2.294-2.607,2.919-1.042.417-2.606.73-3.649.73l-4.691.208c-1.46.105-3.232-.104-4.692-.417s-2.815-1.251-4.066-1.772l-3.023-1.355c-.104,0-1.564-2.19-1.564-2.19s-1.251-2.189-1.355-2.189c0,1.355-1.147,3.128-2.398,3.441-.313,0-.938.104-1.355.104-.834.104-1.668.625-2.19,1.147-.834,0-1.251-.105-1.876-.626 0,1.355 0,2.294-1.147,3.336-2.502,2.294-5.525,2.294-8.757,2.294-1.981,0-2.502-.209-4.17-1.46-.835-.73-1.773-1.668-2.503-2.502-.834-1.042-1.876-2.293-2.397-3.336l-.939-1.877c-.208-.625-.208-1.772-.208-2.606 0-.625-.209-1.251-.417-1.877h-1.043c-1.876.105-3.857.209-5.734.209-.104-1.147-.208-1.355-.625-2.606-.105-.417-.626-1.877-.834-2.294-.73,0-1.564-.209-2.294-.209-.834,0-3.962-.417-4.587,0l-1.147.73c-1.355.73-2.815,1.46-3.545,2.711 .209,0 .522,0 .73-.104 .417-.313 1.043-.626 1.564-.73 .208,0 .417-.209.521-.209z" fill="#fff"/>
  <path d="m306.75 616.05c-3.054 7.096-15.538 3.952-17.065-2.964" fill="none" stroke="#000" stroke-width="1.6026"/>
  <path d="m332.7 608.41c7.186 13.293-11.766 12.305-18.323 8.802v-3.503" fill="none" stroke="#000" stroke-width="1.6026"/>
  <path d="m306.746,616.048c-.179-.988-.359-1.976-.539-2.964" fill="none" stroke="#000" stroke-width="1.6026"/>
  <path d="m310.25 616.05h-3.503" fill="none" stroke="#000" stroke-width="1.6026"/>
  <path d="m314.381,613.713c-2.874-2.156-4.042-1.706-7.635-1.527-.179.27-.359.539-.539.898" fill="none" stroke="#000" stroke-width="1.6026"/>
  <path d="m314.381,613.713c1.976-.269 3.952-.449 5.928-.629" fill="none" stroke="#000" stroke-width="1.6026"/>
  <path d="m289.681,613.084c-4.581-.538-5.928.09-5.928-4.67-3.054-2.246-11.497-1.258-15.899-2.425" fill="none" stroke="#000" stroke-width="1.6026"/>
  <path d="m289.68 613.08c1.527-2.065 2.155-3.233 2.604-5.568-2.155-0.27-2.874-1.527-5.03-1.527v1.257" fill="none" stroke="#000" stroke-width="1.6026"/>
  <path d="m304.411,613.084c-.18-.179-.18-.179 0,0z" fill="none" stroke="#000" stroke-width="1.6026"/>
  <path d="m304.95 613.08h1.257" fill="none" stroke="#000" stroke-width="1.6026"/>
  <path d="m332.7 608.41c-6.287-0.809-12.126-2.425-18.323-2.425-1.347 1.706-1.617 1.527-3.862 1.527-2.156-7.186-1.437-6.737-8.443-7.366" fill="none" stroke="#000" stroke-width="1.6026"/>
  <path d="m332.7 608.41c2.964-2.964 15.09-1.617 19.491-1.797" fill="none" stroke="#000" stroke-width="1.6026"/>
  <path d="m254.83 607.25c2.066 0 4.401-1.347 6.197 0 1.348-0.898 5.03-1.257 6.826-1.257" fill="none" stroke="#000" stroke-width="1.6026"/>
  <path d="m267.85 605.99c-1.167-10.24 17.246-19.311 25.33-13.563" fill="none" stroke="#000" stroke-width="1.6026"/>
  <path d="m294.98 604.82h1.706" fill="none" stroke="#000" stroke-width="1.6026"/>
  <path d="m297.94 603.65c2.245-0.808 2.784-1.527 4.132-3.503" fill="none" stroke="#000" stroke-width="1.6026"/>
  <path d="m302.08 600.15v-3.592" fill="none" stroke="#000" stroke-width="1.6026"/>
  <path d="m298.48 599.52c2.605-2.605-0.539-2.785-0.539-5.3-2.066-1.347-2.246-1.796-4.76-1.796" fill="none" stroke="#000" stroke-width="1.6026"/>
  <path d="m300.28 595.39z" fill="none" stroke="#000" stroke-width="1.6026"/>
  <path d="m293.18 593.59v-1.168" fill="none" stroke="#000" stroke-width="1.6026"/>
  <path d="m267.173,622.966 .171,4.003c-.687,1.125-1.546,2.126-2.577,3.127-1.031,0-2.405.375-3.436.375h-4.467c-1.031-.375-2.578-1.001-3.608-1.376h-.86c-.515.375-1.202,1.001-1.546,1.376-1.546.875-2.749,1.751-3.78,2.877l-1.89.875c-.859.251-2.749.626-3.436,1.126-.172,0-.344.125-.515.125-.344,1.001-1.031,2.127-1.547,3.127-1.202.751-2.749,1.751-4.123,2.377-1.375.125-3.093.5-4.467.625-1.89,0-3.609-.25-5.327-.375-.343-.125-.859-.375-1.202-.375 0-.125-.344-.376-.516-.376-.172-.125-.515-.375-.515-.5h-2.062c-2.405-.625-5.154-1.626-7.732-2.251l-1.374-1.001c-.344-.625-.344-.625-.344-1.001-.343-.25-.343-.25-.687-.25-.859-.25-2.062-.625-2.921-.75-2.921-.626-4.467-1.251-6.701-2.502-.343-.876-1.031-1.876-1.374-2.752 .172-.625.687-1.501 1.031-2.126 .687-.876 1.89-1.751 2.577-2.627l.859-.875c-.344-.125-.687-.376-1.031-.501-1.546-.25-3.093-1.125-4.295-1.626-.344-.625-.859-1.501-1.031-2.126 0-.876.172-1.876.172-2.752-1.547,0-3.265-.125-4.811-.25-1.203-.625-2.749-1.501-3.952-2.252-2.062-2.126-.859-1.25-1.718-1.501 0,.126.172.501.172.626-1.546.5-3.436.875-4.983,1.251h-4.982c-.344-.25-.688-.626-1.031-.876v-1.501c.859-.5 2.062-1.126 3.092-1.501 4.811-.5 9.966-.875 14.948-1h4.983l.172.25h-.344c-.687-1.626.344-2.377 1.031-3.878 2.062-.625 4.295-1.251 6.357-1.626 5.67-.375 3.608-.5 4.124-.125v-1.626c.859-.25 2.061-.5 3.092-.5h4.124c.172.375.687.875.859,1.25 .172.251.515.501.515.751l.172-.25c1.546-2.001 3.78-2.752 6.357-4.128 3.78-.375 7.045-.625 10.824-.625 .172.625.516,1.376.516,2.001l-.344,6.379-1.202,1.876c-.516.626-3.78,2.627-4.124,2.877 .516,0 1.375-.375 1.89-.375 2.921-.375 4.639-.25 7.388,0 .515.625 1.031,1.376 1.375,2.001 .515-.5 1.03-1.751 1.202-2.376 1.203-.751 2.577-1.501 3.952-2.127 1.374,0 3.093.125 4.467.251l1.718,2.376c.344.751 1.031,1.751 1.203,2.502 0,.125.515.75.687.875v.25c0,.376.344,1.001.344,1.376v3.002 1.251h1.031c1.202,0 1.546.125 2.749.25 .343.25 1.718,1.126 1.718,1.501l.344-.125c.515-.5 1.374-1 2.061-1.126 .172,0 .688.251 1.031.376h.344c.172.25.687.5.859.75l.344-.125z" fill="#fff"/>
  <path d="m227.33 601.09h1.181" fill="none" stroke="#000" stroke-width="1.2836"/>
  <path d="m228.515,601.089c6.634.791 6.725,3.453 6.907,8.273-.273.072-.637.144-1,.216" fill="none" stroke="#000" stroke-width="1.2836"/>
  <path d="m228.52 601.09v0.432" fill="none" stroke="#000" stroke-width="1.2836"/>
  <path d="m227.33 601.09h1.181" fill="none" stroke="#000" stroke-width="1.2836"/>
  <path d="m224.88,602.528c.272-.36.454-.791.636-1.223 .636-.072 1.272-.144 1.818-.216" fill="none" stroke="#000" stroke-width="1.2836"/>
  <path d="m228.52 601.52v-0.432" fill="none" stroke="#000" stroke-width="1.2836"/>
  <path d="m228.52 601.52z" fill="none" stroke="#000" stroke-width="1.2836"/>
  <path d="m227.879,602.96c.182-.072.182-.072 0,0z" fill="none" stroke="#000" stroke-width="1.2836"/>
  <path d="m224.88,602.528 2.999.432" fill="none" stroke="#000" stroke-width="1.2836"/>
  <path d="m212.34 605.84c4.453-2.374 7.452-2.949 12.541-3.309" fill="none" stroke="#000" stroke-width="1.2836"/>
  <path d="m227.88 602.96c1.636 2.23 3.998 3.021 5.362 5.683" fill="none" stroke="#000" stroke-width="1.2836"/>
  <path d="m206.977,605.334c1.817.215 3.635.359 5.362.503" fill="none" stroke="#000" stroke-width="1.2836"/>
  <path d="m206.977,605.334c-.273.719-.273.719-1.181.935" fill="none" stroke="#000" stroke-width="1.2836"/>
  <path d="m205.796,606.269c.454-.288.817-.576 1.181-.935" fill="none" stroke="#000" stroke-width="1.2836"/>
  <path d="m212.34 605.84v1.367c-1.909 1.511-0.546 2.302-0.546 4.244" fill="none" stroke="#000" stroke-width="1.2836"/>
  <path d="m205.8 606.27c-4.726 1.007-7.089 2.23-10.724 4.748" fill="none" stroke="#000" stroke-width="1.2836"/>
  <path d="m233.241,608.643c.908.287.908.287 1.181.935" fill="none" stroke="#000" stroke-width="1.2836"/>
  <path d="m233.24 608.64v0.935h1.181" fill="none" stroke="#000" stroke-width="1.2836"/>
  <path d="m234.42 609.58v2.374" fill="none" stroke="#000" stroke-width="1.2836"/>
  <path d="m195.07 611.02c0 3.74 0 3.74 0.636 4.244" fill="none" stroke="#000" stroke-width="1.2836"/>
  <path d="m187.893,615.261c.363-1.151.636-2.302.908-3.525 1.182-.504 1.182-.504 6.271-.719" fill="none" stroke="#000" stroke-width="1.2836"/>
  <path d="m243.96 611.95c9.361 0 12.632-0.072 10.815 7.122" fill="none" stroke="#000" stroke-width="1.2836"/>
  <path d="m243.964,611.952c-.363.503-.727,1.007-1.181,1.439h-1.727v-.936" fill="none" stroke="#000" stroke-width="1.2836"/>
  <path d="m241.056,612.455c1-.143 1.999-.287 2.908-.503" fill="none" stroke="#000" stroke-width="1.2836"/>
  <path d="m234.422,611.952c.454.216.909.36 1.272.503" fill="none" stroke="#000" stroke-width="1.2836"/>
  <path d="m234.42 611.95c-2.908 1.079-4.18 1.726-4.18 4.244" fill="none" stroke="#000" stroke-width="1.2836"/>
  <path d="m241.06 612.46h-5.362" fill="none" stroke="#000" stroke-width="1.2836"/>
  <path d="m235.694,612.455c-.091,1.223-.181,2.374-.272,3.525-3.908.216-3.908.216-4.544.72l-.636-.504" fill="none" stroke="#000" stroke-width="1.2836"/>
  <path d="m169.444,614.757c.091-.359.182-.719.273-1.151h1.181c.091.576.182,1.151.273,1.655" fill="none" stroke="#000" stroke-width="1.2836"/>
  <path d="m184.35 615.26v-0.935h1.182v0.935" fill="none" stroke="#000" stroke-width="1.2836"/>
  <path d="m196.889,615.261c1-.144 2-.288 2.999-.504v1.943" fill="none" stroke="#000" stroke-width="1.2836"/>
  <path d="m169.444,614.757c.637.216 1.182.36 1.727.504" fill="none" stroke="#000" stroke-width="1.2836"/>
  <path d="m165.26 615.26c1.727 0 2.363-0.504 4.18-0.504" fill="none" stroke="#000" stroke-width="1.2836"/>
  <path d="m164.083,615.765v-1.008c.454.216.818.36 1.181.504" fill="none" stroke="#000" stroke-width="1.2836"/>
  <path d="m196.89 615.26v0.935" fill="none" stroke="#000" stroke-width="1.2836"/>
  <path d="m195.71 615.26h1.181" fill="none" stroke="#000" stroke-width="1.2836"/>
  <path d="m195.708,615.261c.182.36.364.647.545.935" fill="none" stroke="#000" stroke-width="1.2836"/>
  <path d="m187.893,615.261c1.908,1.511 4.543.935 7.179.935" fill="none" stroke="#000" stroke-width="1.2836"/>
  <path d="m185.53 615.26h2.363" fill="none" stroke="#000" stroke-width="1.2836"/>
  <path d="m185.53 615.26h-1.182" fill="none" stroke="#000" stroke-width="1.2836"/>
  <path d="m184.35 615.26h-2.362" fill="none" stroke="#000" stroke-width="1.2836"/>
  <path d="m181.986,615.261c.181.647.363,1.295.545,1.87" fill="none" stroke="#000" stroke-width="1.2836"/>
  <path d="m171.17 615.26h10.815" fill="none" stroke="#000" stroke-width="1.2836"/>
  <path d="m165.264,615.261c-.363.216-.727.36-1.181.504" fill="none" stroke="#000" stroke-width="1.2836"/>
  <path d="m164.08 615.76h-1.818" fill="none" stroke="#000" stroke-width="1.2836"/>
  <path d="m243.42 616.2c-0.909 2.158-0.909 2.158-0.636 2.878" fill="none" stroke="#000" stroke-width="1.2836"/>
  <path d="m230.24 616.2h-1.182" fill="none" stroke="#000" stroke-width="1.2836"/>
  <path d="m196.889,616.196c1,.216 2,.36 2.999.504" fill="none" stroke="#000" stroke-width="1.2836"/>
  <path d="m196.25 616.2h0.636" fill="none" stroke="#000" stroke-width="1.2836"/>
  <path d="m195.71 616.2h0.545" fill="none" stroke="#000" stroke-width="1.2836"/>
  <path d="m195.07 616.2h0.636" fill="none" stroke="#000" stroke-width="1.2836"/>
  <path d="m199.888,616.7c.637.359 1.182.647 1.727.935" fill="none" stroke="#000" stroke-width="1.2836"/>
  <path d="m196.25 616.2z" fill="none" stroke="#000" stroke-width="1.2836"/>
  <path d="m195.07 616.2z" fill="none" stroke="#000" stroke-width="1.2836"/>
  <path d="m195.71 617.13z" fill="none" stroke="#000" stroke-width="1.2836"/>
  <path d="m245.782,617.635c-.364.504-.727,1.007-1.182,1.439" fill="none" stroke="#000" stroke-width="1.2836"/>
  <path d="m201.62 617.64c5.907 0 6.907 1.655 11.996 2.806" fill="none" stroke="#000" stroke-width="1.2836"/>
  <path d="m201.615,617.635v4.244c.455.216.818.36 1.182.504" fill="none" stroke="#000" stroke-width="1.2836"/>
  <path d="m254.78 619.07v2.302" fill="none" stroke="#000" stroke-width="1.2836"/>
  <path d="m254.779,621.376c-.727-.072-1.545-.144-2.363-.288-.182-.36-.364-.719-.636-1.079 1.09-.863 1.454-.935 2.999-.935" fill="none" stroke="#000" stroke-width="1.2836"/>
  <path d="m244.6,619.074v.935h-1.817v-.935" fill="none" stroke="#000" stroke-width="1.2836"/>
  <path d="m242.78 619.07h1.817" fill="none" stroke="#000" stroke-width="1.2836"/>
  <path d="m213.611,620.441c1.727-.072 3.453-.144 5.089-.216-.091.575-.182,1.151-.363,1.654" fill="none" stroke="#000" stroke-width="1.2836"/>
  <path d="m213.611,620.441c.182.791.364,1.582.545,2.374" fill="none" stroke="#000" stroke-width="1.2836"/>
  <path d="m269.683,621.376c.454.359.817.719 1.181,1.007" fill="none" stroke="#000" stroke-width="1.2836"/>
  <path d="m254.78 621.38c2.544 0 5.998 1.007 7.724 2.374" fill="none" stroke="#000" stroke-width="1.2836"/>
  <path d="m218.337,621.879c-.273.72-.273.72-1.182.936" fill="none" stroke="#000" stroke-width="1.2836"/>
  <path d="m217.155,622.815c.455-.288.818-.576 1.182-.936" fill="none" stroke="#000" stroke-width="1.2836"/>
  <path d="m202.797,622.383c.636-.504.636-.504 1.817-.504 .636.504.636.504.636,1.871" fill="none" stroke="#000" stroke-width="1.2836"/>
  <path d="m270.864,622.383c4.816.36 8.724.935 13.722.935 .273-.144.455-.288.637-.503 .999.215 1.999.359 2.908.503" fill="none" stroke="#000" stroke-width="1.2836"/>
  <path d="m270.864,622.383-6.543.432c-.182.359-.364.647-.636.935" fill="none" stroke="#000" stroke-width="1.2836"/>
  <path d="m202.797,622.383c.454.503.908.935 1.272,1.367h1.181" fill="none" stroke="#000" stroke-width="1.2836"/>
  <path d="m217.16 622.82h-2.999" fill="none" stroke="#000" stroke-width="1.2836"/>
  <path d="m214.16 622.82c-2.635 0.719-2.999 1.438-5.998 1.438" fill="none" stroke="#000" stroke-width="1.2836"/>
  <path d="m206.977,623.75c.363-.144.636-.288.909-.432 .091.36.181.648.272.935" fill="none" stroke="#000" stroke-width="1.2836"/>
  <path d="m263.68 623.75v0.935h-1.182" fill="none" stroke="#000" stroke-width="1.2836"/>
  <path d="m262.5 623.75h1.182" fill="none" stroke="#000" stroke-width="1.2836"/>
  <path d="m262.5 623.75v0.935" fill="none" stroke="#000" stroke-width="1.2836"/>
  <path d="m206.977,623.75c.454.216.818.359 1.181.503" fill="none" stroke="#000" stroke-width="1.2836"/>
  <path d="m205.25 623.75h1.727" fill="none" stroke="#000" stroke-width="1.2836"/>
  <path d="m208.16 624.25c-2.181 5.899 1 10.647 8.997 12.733" fill="none" stroke="#000" stroke-width="1.2836"/>
  <path d="m262.5 624.68c-0.636 1.942-2.726 2.302-4.18 3.813" fill="none" stroke="#000" stroke-width="1.2836"/>
  <path d="m251.14 626.63c1.818 0.648 3.636 1.295 5.362 1.871" fill="none" stroke="#000" stroke-width="1.2836"/>
  <path d="m251.14 626.63v3.309" fill="none" stroke="#000" stroke-width="1.2836"/>
  <path d="m249.42 626.63h1.726" fill="none" stroke="#000" stroke-width="1.2836"/>
  <path d="m258.323,628.498c.636.503.636.503 1.817.503" fill="none" stroke="#000" stroke-width="1.2836"/>
  <path d="m256.5 628.5h1.818" fill="none" stroke="#000" stroke-width="1.2836"/>
  <path d="m256.5 628.5v1.438h-5.362" fill="none" stroke="#000" stroke-width="1.2836"/>
  <path d="m251.143,629.936c-3.726,2.518-7.997,6.403-13.086,6.835-.182.287-.363.503-.636.719-4.635.216-9.088,2.014-13.723,1.439" fill="none" stroke="#000" stroke-width="1.2836"/>
  <path d="m220.15 636.56-2.999 0.431" fill="none" stroke="#000" stroke-width="1.2836"/>
  <path d="m217.155,636.986c.636,1.655 3.454.864 4.817,1.943" fill="none" stroke="#000" stroke-width="1.2836"/>
  <path d="m223.698,638.929c-.09.287-.181.503-.272.719h-1.182c-.09-.216-.181-.432-.272-.719" fill="none" stroke="#000" stroke-width="1.2836"/>
  <path d="m221.97 638.93h1.726" fill="none" stroke="#000" stroke-width="1.2836"/>
 </g>
</svg>
